# xmcd
#
# Track frame offsets: 
#        150
#        15572
#        32451
#        49530
#        62585
#        67485
#        87483
#        102128
#        123096
#        138817
#        142102
#        162530
#        178193
#        198162
#        221207
#        260976
#
# Disc length: 3723 seconds
#
# Revision: 0
# Processed by: cddbd v1.5.2PL0 Copyright (c) Steve Scherf et al.
# Submitted via: ExactAudioCopy v0.99pb5
#
DISCID=f00e8910
DTITLE=Николай Матвеев - Transatlantic
DYEAR=2009
DGENRE=Jazz
TTITLE0=Нежность
TTITLE1=Вечерняя песня
TTITLE2=Темная ночь
TTITLE3=Три года ты мне снилась
TTITLE4=Interlude I
TTITLE5=Не думай о секундах свысока
TTITLE6=Синий платочек
TTITLE7=Ноктюрн
TTITLE8=Московские окна
TTITLE9=Interlude II
TTITLE10=Течет Волга
TTITLE11=Что так сердце растревожено
TTITLE12=Подмосковные вечера
TTITLE13=Есть только миг
TTITLE14=Не думай о секундах свысока
TTITLE15=video
EXTD=
EXTT0=
EXTT1=
EXTT2=
EXTT3=
EXTT4=
EXTT5=
EXTT6=
EXTT7=
EXTT8=
EXTT9=
EXTT10=
EXTT11=
EXTT12=
EXTT13=
EXTT14=
EXTT15=
PLAYORDER=
